<?xml version="1.0" standalone="no"?>
<!DOCTYPE svg PUBLIC "-//W3C//DTD SVG 20010904//EN"
 "http://www.w3.org/TR/2001/REC-SVG-20010904/DTD/svg10.dtd">
<svg version="1.0" xmlns="http://www.w3.org/2000/svg"
 width="261.000000pt" height="261.000000pt" viewBox="0 0 261.000000 261.000000"
 preserveAspectRatio="xMidYMid meet">
<metadata>
Created by potrace 1.14, written by Peter Selinger 2001-2017
</metadata>
<g transform="translate(0.000000,261.000000) scale(0.100000,-0.100000)"
fill="#000000" stroke="none">
<path d="M497 2416 c-63 -23 -67 -31 -67 -113 l0 -75 34 22 c19 11 56 23 83
26 42 5 54 2 93 -24 25 -17 67 -60 93 -96 81 -111 167 -143 283 -106 78 25 84
33 84 110 0 39 -1 70 -2 70 -2 0 -27 -9 -56 -20 -32 -12 -76 -20 -116 -20 -80
0 -124 27 -195 121 -78 104 -150 136 -234 105z"/>
<path d="M1731 2314 c-25 -9 -54 -22 -65 -30 -28 -18 -132 -44 -176 -44 -33 0
-120 19 -162 35 -16 6 -18 -1 -18 -68 l0 -75 47 -16 c113 -39 200 -31 334 29
93 43 182 48 237 15 18 -11 35 -20 37 -20 3 0 5 34 5 75 l0 75 -40 20 c-48 24
-135 26 -199 4z"/>
<path d="M1583 1972 c-206 -74 -301 -311 -205 -515 56 -120 157 -192 289 -204
107 -9 173 -54 224 -153 22 -42 24 -59 29 -295 7 -280 15 -316 86 -405 62 -78
173 -140 251 -140 21 0 23 4 23 54 l0 54 -44 6 c-56 9 -125 54 -161 106 -46
66 -55 123 -55 345 0 110 -5 220 -11 245 -15 67 -55 140 -105 190 l-44 46 49
48 c29 28 61 75 78 110 24 53 28 73 28 156 0 86 -3 101 -31 160 -77 162 -251
246 -401 192z m166 -78 c62 -18 132 -78 163 -139 32 -61 36 -174 9 -247 -24
-62 -88 -129 -146 -154 -45 -19 -146 -18 -193 1 -52 22 -110 81 -138 140 -18
38 -24 67 -24 123 0 111 46 201 128 249 75 44 123 51 201 27z"/>
<path d="M702 1720 c-55 -34 -77 -112 -47 -170 66 -128 239 -68 222 78 -10 89
-102 138 -175 92z"/>
<path d="M613 905 c17 -124 119 -254 229 -291 73 -25 170 -23 233 5 60 27 80
44 115 99 l28 42 27 -46 c68 -116 246 -155 386 -83 92 47 175 165 187 266 l5
45 -47 -36 c-54 -41 -90 -50 -184 -44 -53 3 -87 13 -160 47 -112 52 -144 51
-191 -5 -28 -35 -29 -35 -36 -14 -8 26 -61 60 -95 60 -14 0 -68 -20 -120 -45
-87 -41 -101 -45 -173 -45 -85 0 -137 19 -185 67 l-25 25 6 -47z"/>
<path d="M1168 308 c-27 -17 -72 -36 -100 -43 l-53 -12 35 -22 c105 -65 235
-64 334 3 l29 19 -54 14 c-30 7 -73 27 -97 43 -23 17 -44 30 -45 29 -1 0 -23
-14 -49 -31z"/>
</g>
</svg>
